<mxfile host="Electron" agent="Mozilla/5.0 (X11; Linux x86_64) AppleWebKit/537.36 (KHTML, like Gecko) draw.io/24.7.8 Chrome/128.0.6613.36 Electron/32.0.1 Safari/537.36" version="24.7.8">
  <diagram name="Page-1" id="QlfDz8VT_aAHcxuY3FpF">
    <mxGraphModel dx="1364" dy="1013" grid="1" gridSize="10" guides="1" tooltips="1" connect="1" arrows="1" fold="1" page="1" pageScale="1" pageWidth="850" pageHeight="1100" math="1" shadow="0">
      <root>
        <mxCell id="0" />
        <mxCell id="1" parent="0" />
        <mxCell id="U8LK5pkvlzr_vq1Ju4s9-2" value="$$7$$" style="rounded=0;whiteSpace=wrap;html=1;fillColor=#dae8fc;strokeColor=none;fontSize=18;" vertex="1" parent="1">
          <mxGeometry x="360" y="150" width="50" height="50" as="geometry" />
        </mxCell>
        <mxCell id="U8LK5pkvlzr_vq1Ju4s9-3" value="$$4$$" style="rounded=0;whiteSpace=wrap;html=1;fillColor=#ffe6cc;strokeColor=none;fontSize=18;" vertex="1" parent="1">
          <mxGeometry x="280" y="150" width="50" height="50" as="geometry" />
        </mxCell>
        <mxCell id="U8LK5pkvlzr_vq1Ju4s9-5" value="$$0$$" style="rounded=0;whiteSpace=wrap;html=1;fillColor=#d5e8d4;strokeColor=none;fontSize=18;" vertex="1" parent="1">
          <mxGeometry x="200" y="150" width="50" height="50" as="geometry" />
        </mxCell>
        <mxCell id="U8LK5pkvlzr_vq1Ju4s9-6" value="╳" style="rounded=0;whiteSpace=wrap;html=1;fillColor=#d5e8d4;strokeColor=#999999;fontSize=18;strokeWidth=1;dashed=1;fontColor=#999999;" vertex="1" parent="1">
          <mxGeometry x="440" y="150" width="50" height="50" as="geometry" />
        </mxCell>
        <mxCell id="U8LK5pkvlzr_vq1Ju4s9-9" value="╳" style="rounded=0;whiteSpace=wrap;html=1;fillColor=#ffe6cc;strokeColor=#999999;fontSize=18;strokeWidth=1;dashed=1;fontColor=#999999;" vertex="1" parent="1">
          <mxGeometry x="520" y="150" width="50" height="50" as="geometry" />
        </mxCell>
        <mxCell id="U8LK5pkvlzr_vq1Ju4s9-19" value="$$\textrm{top-}k$$" style="rounded=0;whiteSpace=wrap;html=1;fillColor=#bac8d3;strokeColor=#000000;fontSize=18;strokeWidth=1.5;" vertex="1" parent="1">
          <mxGeometry x="200" y="380" width="290" height="40" as="geometry" />
        </mxCell>
        <mxCell id="U8LK5pkvlzr_vq1Ju4s9-20" value="$$2$$" style="rounded=0;whiteSpace=wrap;html=1;fillColor=#dae8fc;strokeColor=none;fontSize=18;" vertex="1" parent="1">
          <mxGeometry x="120" y="80" width="50" height="50" as="geometry" />
        </mxCell>
        <mxCell id="U8LK5pkvlzr_vq1Ju4s9-21" value="$$8$$" style="rounded=0;whiteSpace=wrap;html=1;fillColor=#dae8fc;strokeColor=none;fontSize=18;" vertex="1" parent="1">
          <mxGeometry x="360" y="80" width="50" height="50" as="geometry" />
        </mxCell>
        <mxCell id="U8LK5pkvlzr_vq1Ju4s9-22" value="$$1$$" style="rounded=0;whiteSpace=wrap;html=1;fillColor=#ffe6cc;strokeColor=none;fontSize=18;" vertex="1" parent="1">
          <mxGeometry x="280" y="80" width="50" height="50" as="geometry" />
        </mxCell>
        <mxCell id="U8LK5pkvlzr_vq1Ju4s9-23" value="$$9$$" style="rounded=0;whiteSpace=wrap;html=1;fillColor=#d5e8d4;strokeColor=none;fontSize=18;" vertex="1" parent="1">
          <mxGeometry x="200" y="80" width="50" height="50" as="geometry" />
        </mxCell>
        <mxCell id="U8LK5pkvlzr_vq1Ju4s9-24" value="$$3$$" style="rounded=0;whiteSpace=wrap;html=1;fillColor=#d5e8d4;strokeColor=none;fontSize=18;" vertex="1" parent="1">
          <mxGeometry x="440" y="80" width="50" height="50" as="geometry" />
        </mxCell>
        <mxCell id="U8LK5pkvlzr_vq1Ju4s9-49" style="edgeStyle=orthogonalEdgeStyle;rounded=0;orthogonalLoop=1;jettySize=auto;html=1;exitX=1;exitY=0.5;exitDx=0;exitDy=0;entryX=0;entryY=0.5;entryDx=0;entryDy=0;strokeColor=#B3B3B3;" edge="1" parent="1" source="U8LK5pkvlzr_vq1Ju4s9-25" target="U8LK5pkvlzr_vq1Ju4s9-1">
          <mxGeometry relative="1" as="geometry">
            <Array as="points">
              <mxPoint x="590" y="105" />
              <mxPoint x="590" y="140" />
              <mxPoint x="100" y="140" />
              <mxPoint x="100" y="175" />
            </Array>
          </mxGeometry>
        </mxCell>
        <mxCell id="U8LK5pkvlzr_vq1Ju4s9-25" value="$$5$$" style="rounded=0;whiteSpace=wrap;html=1;fillColor=#ffe6cc;strokeColor=none;fontSize=18;" vertex="1" parent="1">
          <mxGeometry x="520" y="80" width="50" height="50" as="geometry" />
        </mxCell>
        <mxCell id="U8LK5pkvlzr_vq1Ju4s9-29" value="$$8$$" style="rounded=0;whiteSpace=wrap;html=1;fillColor=#bac8d3;strokeColor=none;fontSize=18;" vertex="1" parent="1">
          <mxGeometry x="280" y="430" width="50" height="50" as="geometry" />
        </mxCell>
        <mxCell id="U8LK5pkvlzr_vq1Ju4s9-30" value="$$7$$" style="rounded=0;whiteSpace=wrap;html=1;fillColor=#bac8d3;strokeColor=none;fontSize=18;" vertex="1" parent="1">
          <mxGeometry x="360" y="430" width="50" height="50" as="geometry" />
        </mxCell>
        <mxCell id="U8LK5pkvlzr_vq1Ju4s9-35" value="$$b\times$$" style="text;html=1;align=left;verticalAlign=middle;whiteSpace=wrap;rounded=0;fontSize=20;" vertex="1" parent="1">
          <mxGeometry x="70" y="245" width="30" height="30" as="geometry" />
        </mxCell>
        <mxCell id="U8LK5pkvlzr_vq1Ju4s9-1" value="$$6$$" style="rounded=0;whiteSpace=wrap;html=1;fillColor=#dae8fc;strokeColor=none;fontSize=18;" vertex="1" parent="1">
          <mxGeometry x="120" y="150" width="50" height="50" as="geometry" />
        </mxCell>
        <mxCell id="U8LK5pkvlzr_vq1Ju4s9-39" value="$$9$$" style="rounded=0;whiteSpace=wrap;html=1;fillColor=#bac8d3;strokeColor=none;fontSize=18;" vertex="1" parent="1">
          <mxGeometry x="200" y="430" width="50" height="50" as="geometry" />
        </mxCell>
        <mxCell id="U8LK5pkvlzr_vq1Ju4s9-40" value="$$5$$" style="rounded=0;whiteSpace=wrap;html=1;fillColor=#bac8d3;strokeColor=none;fontSize=18;" vertex="1" parent="1">
          <mxGeometry x="440" y="430" width="50" height="50" as="geometry" />
        </mxCell>
        <mxCell id="U8LK5pkvlzr_vq1Ju4s9-16" value="$$\textrm{top-}k_b$$" style="rounded=0;whiteSpace=wrap;html=1;fillColor=#dae8fc;strokeColor=#000000;fontSize=18;strokeWidth=1.5;" vertex="1" parent="1">
          <mxGeometry x="120" y="240" width="130" height="40" as="geometry" />
        </mxCell>
        <mxCell id="U8LK5pkvlzr_vq1Ju4s9-33" value="$$\textrm{top-}k_b$$" style="rounded=0;whiteSpace=wrap;html=1;fillColor=#d5e8d4;strokeColor=#000000;fontSize=18;strokeWidth=1.5;" vertex="1" parent="1">
          <mxGeometry x="280" y="240" width="130" height="40" as="geometry" />
        </mxCell>
        <mxCell id="U8LK5pkvlzr_vq1Ju4s9-34" value="$$\textrm{top-}k_b$$" style="rounded=0;whiteSpace=wrap;html=1;fillColor=#ffe6cc;strokeColor=#000000;fontSize=18;strokeWidth=1.5;" vertex="1" parent="1">
          <mxGeometry x="440" y="240" width="130" height="40" as="geometry" />
        </mxCell>
        <mxCell id="U8LK5pkvlzr_vq1Ju4s9-50" value="$$8$$" style="rounded=0;whiteSpace=wrap;html=1;fillColor=#dae8fc;strokeColor=none;fontSize=18;" vertex="1" parent="1">
          <mxGeometry x="120" y="290" width="50" height="50" as="geometry" />
        </mxCell>
        <mxCell id="U8LK5pkvlzr_vq1Ju4s9-51" value="$$7$$" style="rounded=0;whiteSpace=wrap;html=1;fillColor=#dae8fc;strokeColor=none;fontSize=18;" vertex="1" parent="1">
          <mxGeometry x="200" y="290" width="50" height="50" as="geometry" />
        </mxCell>
        <mxCell id="U8LK5pkvlzr_vq1Ju4s9-52" value="$$9$$" style="rounded=0;whiteSpace=wrap;html=1;fillColor=#d5e8d4;strokeColor=none;fontSize=18;" vertex="1" parent="1">
          <mxGeometry x="280" y="290" width="50" height="50" as="geometry" />
        </mxCell>
        <mxCell id="U8LK5pkvlzr_vq1Ju4s9-53" value="$$3$$" style="rounded=0;whiteSpace=wrap;html=1;fillColor=#d5e8d4;strokeColor=none;fontSize=18;" vertex="1" parent="1">
          <mxGeometry x="360" y="290" width="50" height="50" as="geometry" />
        </mxCell>
        <mxCell id="U8LK5pkvlzr_vq1Ju4s9-55" value="$$5$$" style="rounded=0;whiteSpace=wrap;html=1;fillColor=#ffe6cc;strokeColor=none;fontSize=18;" vertex="1" parent="1">
          <mxGeometry x="440" y="290" width="50" height="50" as="geometry" />
        </mxCell>
        <mxCell id="U8LK5pkvlzr_vq1Ju4s9-56" value="$$4$$" style="rounded=0;whiteSpace=wrap;html=1;fillColor=#ffe6cc;strokeColor=none;fontSize=18;" vertex="1" parent="1">
          <mxGeometry x="520" y="290" width="50" height="50" as="geometry" />
        </mxCell>
        <mxCell id="U8LK5pkvlzr_vq1Ju4s9-57" value="Step 1" style="text;html=1;align=left;verticalAlign=middle;whiteSpace=wrap;rounded=0;fontStyle=1;fontSize=13;fontColor=#4D4D4D;" vertex="1" parent="1">
          <mxGeometry x="70" y="210" width="60" height="30" as="geometry" />
        </mxCell>
        <mxCell id="U8LK5pkvlzr_vq1Ju4s9-59" value="Step 2" style="text;html=1;align=left;verticalAlign=middle;whiteSpace=wrap;rounded=0;fontStyle=1;fontSize=13;fontColor=#4D4D4D;" vertex="1" parent="1">
          <mxGeometry x="70" y="350" width="50" height="30" as="geometry" />
        </mxCell>
        <mxCell id="U8LK5pkvlzr_vq1Ju4s9-60" value="$$n\times$$" style="text;html=1;align=left;verticalAlign=middle;whiteSpace=wrap;rounded=0;fontSize=20;" vertex="1" parent="1">
          <mxGeometry x="70" y="90" width="30" height="30" as="geometry" />
        </mxCell>
        <mxCell id="U8LK5pkvlzr_vq1Ju4s9-62" value="" style="endArrow=none;html=1;rounded=0;strokeWidth=0.5;exitX=0;exitY=0;exitDx=0;exitDy=0;" edge="1" parent="1" source="U8LK5pkvlzr_vq1Ju4s9-57">
          <mxGeometry width="50" height="50" relative="1" as="geometry">
            <mxPoint x="80" y="210" as="sourcePoint" />
            <mxPoint x="590" y="210" as="targetPoint" />
          </mxGeometry>
        </mxCell>
        <mxCell id="U8LK5pkvlzr_vq1Ju4s9-63" value="" style="endArrow=none;html=1;rounded=0;strokeWidth=0.5;" edge="1" parent="1">
          <mxGeometry width="50" height="50" relative="1" as="geometry">
            <mxPoint x="70" y="350" as="sourcePoint" />
            <mxPoint x="590" y="350" as="targetPoint" />
          </mxGeometry>
        </mxCell>
      </root>
    </mxGraphModel>
  </diagram>
</mxfile>
